<svg width="15" height="17" viewBox="0 0 15 17" fill="none" xmlns="http://www.w3.org/2000/svg">
<g id="Icon" clip-path="url(#clip0_95_1176)">
<path id="Vector" d="M8.65137 2.84863L14.1514 8.09863C14.2972 8.24447 14.3701 8.42155 14.3701 8.62988C14.3701 8.83822 14.2972 9.0153 14.1514 9.16113L8.65137 14.4111C8.27637 14.7028 7.9222 14.7028 7.58887 14.4111C7.2972 14.0361 7.2972 13.682 7.58887 13.3486L11.7451 9.37988H1.12012C0.661784 9.33822 0.411784 9.08822 0.370117 8.62988C0.411784 8.17155 0.661784 7.92155 1.12012 7.87988H11.7451L7.58887 3.91113C7.2972 3.5778 7.2972 3.22363 7.58887 2.84863C7.9222 2.55697 8.27637 2.55697 8.65137 2.84863Z" fill="white"/>
</g>
<defs>
<clipPath id="clip0_95_1176">
<rect width="14.48" height="16" fill="white" transform="matrix(1 0 0 -1 0.129883 16.6299)"/>
</clipPath>
</defs>
</svg>
