<svg width="33" height="32" viewBox="0 0 33 32" fill="none" xmlns="http://www.w3.org/2000/svg">
<g id="Clip path group">
<mask id="mask0_95_1464" style="mask-type:luminance" maskUnits="userSpaceOnUse" x="0" y="0" width="33" height="32">
<g id="a">
<path id="Vector" d="M32.0552 0H0.0551758V32H32.0552V0Z" fill="white"/>
</g>
</mask>
<g mask="url(#mask0_95_1464)">
<g id="Group">
<path id="Vector_2" d="M30.2153 11.4187C28.0519 9.25524 24.6969 9.00072 22.2558 10.6435C21.9203 10.8633 21.6079 11.1179 21.3187 11.4187L19.1322 13.6052L19.0396 13.6978L18.681 14.0564L18.01 13.3854L18.4612 12.9342L20.6477 10.7476C20.9485 10.4469 21.203 10.1345 21.4228 9.79899C23.0656 7.35792 22.7996 4.00289 20.6477 1.83948C18.1951 -0.61316 14.2038 -0.61316 11.7395 1.83948C9.28694 4.29212 9.28694 8.29501 11.7395 10.7476L14.3889 13.397L13.4633 14.3225L10.814 11.6732C8.36142 9.22053 4.37009 9.22053 1.90588 11.6732C-0.546752 14.1258 -0.546752 18.1171 1.90588 20.5813C4.0693 22.7448 7.42432 22.9993 9.87696 21.3565C10.2124 21.1367 10.5248 20.8821 10.814 20.5813L13.4633 17.932L14.1343 18.603L13.8335 18.8923L11.485 21.2408C9.03242 23.6934 9.03242 27.6963 11.485 30.1489C13.9377 32.6016 17.9406 32.6016 20.3932 30.1489C22.8458 27.6963 22.8458 23.705 20.3932 21.2408L19.9767 20.8243L17.7439 18.5915L18.6694 17.6659L21.3187 20.3153C23.7714 22.7679 27.7743 22.7679 30.2269 20.3153C32.668 17.8742 32.668 13.8713 30.2153 11.4187ZM11.3462 16.4281L8.99771 18.7766L8.98614 18.7881C8.9283 18.846 8.85888 18.9038 8.80104 18.9617C8.7779 18.9848 8.75476 18.9964 8.73162 19.0195C8.68535 19.0658 8.6275 19.1005 8.56966 19.1468C8.53495 19.1699 8.50024 19.2046 8.45397 19.2278C8.41926 19.2509 8.37298 19.274 8.33828 19.2972C8.28043 19.3319 8.21102 19.3666 8.15317 19.4013C8.1416 19.4129 8.13003 19.4129 8.11846 19.4244C8.08376 19.4476 8.03748 19.4707 8.00277 19.4823C8.00277 19.4823 8.00277 19.4823 7.99121 19.4823C6.59135 20.1649 4.85599 19.9219 3.69909 18.765C2.97024 18.0361 2.60003 17.0759 2.60003 16.1157C2.60003 15.9306 2.6116 15.757 2.63473 15.5835C2.6463 15.4678 2.66944 15.3521 2.70415 15.2249C2.73886 15.0976 2.76199 14.9935 2.80827 14.8778C2.86612 14.7043 2.93553 14.5423 3.02808 14.3803C3.08593 14.2762 3.14377 14.1605 3.21319 14.0564C3.2826 13.9523 3.35202 13.8482 3.433 13.7556C3.51398 13.663 3.59497 13.5589 3.68752 13.4664C4.50892 12.645 5.61955 12.2863 6.69547 12.3905C6.81116 12.402 6.93842 12.4136 7.05411 12.4367C7.28549 12.483 7.51687 12.5524 7.74826 12.645C7.86395 12.6912 7.96807 12.7375 8.08376 12.7954C8.40769 12.9689 8.72006 13.1887 8.98614 13.4664L11.6354 16.1157L11.3462 16.4281ZM13.5443 8.94288C13.498 8.8966 13.4518 8.85032 13.4171 8.80405C13.3824 8.75777 13.3361 8.7115 13.2898 8.66522C13.2088 8.57267 13.1394 8.46855 13.07 8.36442C13.0006 8.2603 12.9427 8.15618 12.8849 8.04049C12.827 7.93637 12.7808 7.82068 12.7345 7.70499C12.6651 7.53145 12.6072 7.35792 12.5725 7.18438C12.561 7.12654 12.5494 7.06869 12.5378 7.01085C12.5147 6.89515 12.5031 6.77946 12.4915 6.6522C12.3874 5.57628 12.7461 4.46565 13.5675 3.64425C14.1112 3.10051 14.7938 2.75343 15.4995 2.61461C15.6152 2.59147 15.7309 2.5799 15.8581 2.56833C16.0317 2.55676 16.2168 2.54519 16.4019 2.55676C16.5176 2.55676 16.6448 2.56833 16.7605 2.59147C16.8184 2.60304 16.8762 2.61461 16.9341 2.62617C17.0497 2.64931 17.1654 2.67245 17.2811 2.70716C17.4547 2.75343 17.6282 2.82285 17.7902 2.90383C17.9521 2.98482 18.1141 3.0658 18.2761 3.16992C18.4843 3.30875 18.681 3.47072 18.8661 3.64425C18.9355 3.71367 19.0049 3.79465 19.0743 3.86406C19.0859 3.87563 19.0859 3.87563 19.0975 3.8872C19.1553 3.95662 19.2132 4.0376 19.271 4.10701C19.2826 4.11858 19.2941 4.13015 19.2941 4.14172C19.352 4.21113 19.3983 4.29212 19.4445 4.3731C19.4561 4.38467 19.4561 4.39624 19.4677 4.41938C19.514 4.50036 19.5602 4.58134 19.5949 4.66233C19.5949 4.6739 19.6065 4.68547 19.6065 4.69703C19.6412 4.77802 19.6875 4.87057 19.7222 4.95155V4.96312C19.7569 5.05568 19.78 5.13666 19.8147 5.22921C19.8147 5.24078 19.8147 5.24078 19.8263 5.25235C19.8495 5.3449 19.8726 5.42589 19.8957 5.51844C19.8957 5.53001 19.8957 5.54158 19.9073 5.55314C19.9189 5.6457 19.942 5.72668 19.9536 5.81923C19.9536 5.8308 19.9536 5.85394 19.9536 5.86551C19.9651 5.95806 19.9651 6.03904 19.9767 6.1316C19.9767 6.14317 19.9767 6.15474 19.9767 6.1663C19.9767 6.25886 19.9767 6.35141 19.9767 6.44396C19.9767 6.45553 19.9767 6.45553 19.9767 6.4671C19.9767 6.55965 19.9651 6.6522 19.9536 6.74476V6.75633C19.942 6.84888 19.9304 6.94143 19.9073 7.03398C19.9073 7.04555 19.9073 7.05712 19.8957 7.06869C19.8726 7.16124 19.8495 7.24223 19.8263 7.33478C19.8263 7.34635 19.8147 7.35792 19.8147 7.38105C19.7916 7.46204 19.7569 7.55459 19.7222 7.63557C19.7222 7.64714 19.7106 7.65871 19.7106 7.67028C19.6759 7.75127 19.6412 7.84382 19.5949 7.9248C19.5949 7.93637 19.5834 7.93637 19.5834 7.94794C19.5371 8.04049 19.4908 8.12147 19.4445 8.20246C19.433 8.2256 19.4098 8.2603 19.3983 8.28344C19.3867 8.30658 19.3751 8.31815 19.3636 8.34129C19.352 8.35285 19.352 8.36442 19.3404 8.37599C19.3173 8.4107 19.2941 8.44541 19.2594 8.48011C19.2247 8.52639 19.19 8.58424 19.1437 8.63051C19.1437 8.64208 19.1322 8.64208 19.1322 8.65365C19.0975 8.68836 19.0743 8.72306 19.0396 8.75777C19.0281 8.76934 19.0165 8.78091 19.0049 8.79248C18.9818 8.82719 18.9471 8.85032 18.9239 8.88503C18.9124 8.8966 18.9008 8.90817 18.8892 8.93131L18.01 9.79899L16.2399 11.5691L17.9406 9.83369L16.1821 11.5806L13.5443 8.94288ZM18.5769 23.0687C20.0346 24.5264 20.0346 26.898 18.5769 28.3557C17.1192 29.8134 14.7475 29.8134 13.2898 28.3557C11.8321 26.898 11.8321 24.5264 13.2898 23.0687L15.9391 20.4194L18.5769 23.0687ZM15.9275 16.7983L15.245 16.1273L16.1705 15.2017L16.8415 15.8727L15.9275 16.7983ZM28.4106 18.5221C26.9529 19.9798 24.5812 19.9798 23.1235 18.5221L22.707 18.1056L20.4742 15.8727L20.8444 15.5025L20.9369 15.41L23.1235 13.2234C23.4243 12.9226 23.7598 12.6797 24.13 12.5061C25.5299 11.8236 27.2652 12.0665 28.4221 13.2234C29.8683 14.6811 29.8683 17.0644 28.4106 18.5221Z" fill="#3F3EED"/>
</g>
</g>
</g>
</svg>
