<svg width="19" height="13" viewBox="0 0 19 13" fill="none" xmlns="http://www.w3.org/2000/svg">
<path d="M17.6881 1.70101C16.9567 1.70101 16.3643 2.30821 16.3643 3.05515C16.3643 3.54105 16.6142 3.96406 16.9905 4.20444C16.1954 5.32784 15.0736 6.63244 13.9172 7.01037C12.3955 7.50809 10.9767 4.44924 10.2783 2.63138C10.796 2.44796 11.1731 1.94728 11.1731 1.35342C11.1731 0.606478 10.5815 0 9.85248 0C9.125 0 8.53266 0.606443 8.53266 1.35342C8.53266 1.94728 8.90895 2.44724 9.42745 2.63138C8.73063 4.44924 7.3134 7.50809 5.78935 7.01037C4.63451 6.63244 3.51031 5.32784 2.71687 4.20444C3.09159 3.9641 3.3422 3.5418 3.3422 3.05515C3.3422 2.30821 2.74906 1.70101 2.02001 1.70101C1.29253 1.70101 0.700195 2.30821 0.700195 3.05515C0.700195 3.80433 1.29253 4.41077 2.02001 4.41077C2.03495 4.41077 2.04514 4.40707 2.05931 4.40559L3.84264 12.2043H15.8647L17.6488 4.40559C17.6614 4.40635 17.6739 4.41077 17.6889 4.41077C18.4156 4.41077 19.0079 3.80433 19.0079 3.05515C19.0071 2.30821 18.4148 1.70101 17.6881 1.70101Z" fill="#3F3EED"/>
</svg>
