<svg width="25" height="24" viewBox="0 0 25 24" fill="none" xmlns="http://www.w3.org/2000/svg">
<g id="Summarisation 2" clip-path="url(#clip0_113_1929)">
<path id="Vector" d="M16.71 19.158C16.4731 19.158 16.2497 19.1563 16.0255 19.158C15.5661 19.1613 15.105 19.1469 14.6472 19.1766C14.0613 19.2148 13.6044 19.6522 13.5687 20.2407C13.5305 20.8751 13.55 21.5129 13.5449 22.1489C13.5441 22.2559 13.5449 22.3621 13.5449 22.4988H13.2485C9.56969 22.4988 5.89169 22.4988 2.21284 22.4988C1.69821 22.4988 1.49609 22.3001 1.49609 21.7906C1.49609 15.8765 1.49609 9.96252 1.49609 4.04936C1.49609 3.53642 1.68123 3.34705 2.18652 3.34535C2.98819 3.34365 3.78986 3.34535 4.59917 3.34535C4.61191 3.3997 4.62804 3.43876 4.62974 3.47783C4.65267 3.94915 4.71381 4.00944 5.17834 4.00944C7.77867 4.00944 10.3782 4.00944 12.9785 4.00944C13.5271 4.00944 13.556 3.98227 13.5942 3.44386C13.5959 3.42008 13.6078 3.398 13.6239 3.34535C13.7173 3.34535 13.815 3.34535 13.9126 3.34535C14.6396 3.34535 15.3674 3.34195 16.0943 3.34705C16.5155 3.34959 16.7236 3.5602 16.727 3.98227C16.7312 4.62598 16.7278 5.2697 16.7278 5.927C16.3448 5.85057 15.9848 5.758 15.6179 5.7079C14.4128 5.5423 13.2791 5.76734 12.2082 6.34567C12.0486 6.43229 11.8499 6.48579 11.6681 6.48664C9.5026 6.49598 7.33793 6.49258 5.1724 6.49258C4.78345 6.49258 4.63823 6.58345 4.63569 6.82548C4.63314 7.07006 4.78515 7.16942 5.16391 7.16942C7.02796 7.16942 8.89286 7.16942 10.7569 7.16942H11.0737C11.0049 7.25094 10.9667 7.3002 10.9242 7.34521C10.4767 7.81653 10.114 8.34559 9.86353 8.946C9.80238 9.09376 9.7234 9.13792 9.5663 9.13707C8.08694 9.13113 6.60674 9.13368 5.12739 9.13368C5.05266 9.13368 4.97368 9.12519 4.90234 9.14217C4.7291 9.18463 4.62634 9.29503 4.63569 9.48441C4.64588 9.67039 4.74608 9.77654 4.93122 9.79523C5.01444 9.80372 5.09851 9.80032 5.18174 9.80032C6.54475 9.80032 7.90691 9.80032 9.26992 9.80032C9.35824 9.80032 9.44741 9.80032 9.50515 9.80032C9.46014 10.4704 9.41768 11.109 9.37267 11.7816C9.30049 11.7816 9.20283 11.7816 9.10517 11.7816C7.79226 11.7816 6.48021 11.7816 5.1673 11.7816C5.07558 11.7816 4.96519 11.7569 4.8964 11.7986C4.79449 11.8605 4.66796 11.9642 4.65267 12.0644C4.63738 12.1671 4.72146 12.3149 4.80723 12.3922C4.87432 12.4525 5.01104 12.4491 5.11635 12.4491C6.51248 12.4525 7.90861 12.4516 9.30474 12.4516H9.47458C9.7837 13.1225 10.0775 13.7611 10.3773 14.4125C10.3255 14.4125 10.238 14.4125 10.1506 14.4125C8.46145 14.4125 6.77319 14.4125 5.08408 14.4125C4.7843 14.4125 4.64163 14.5161 4.63484 14.7326C4.62804 14.9169 4.71381 15.0392 4.8981 15.0706C4.99576 15.0876 5.09766 15.0842 5.19787 15.0842C7.06193 15.0842 8.92683 15.0868 10.7909 15.0808C10.9709 15.0808 11.0983 15.136 11.2359 15.2541C12.7484 16.5542 14.4748 16.9398 16.4009 16.4387C16.496 16.4141 16.5911 16.3895 16.7074 16.3589V19.1554L16.71 19.158ZM9.86607 17.0689C8.295 17.0689 6.72393 17.0689 5.15202 17.0689C5.07643 17.0689 5.00085 17.0646 4.92612 17.0723C4.75373 17.0901 4.65352 17.1886 4.63653 17.3627C4.6187 17.5478 4.70787 17.6701 4.88281 17.7194C4.9533 17.7397 5.03227 17.7312 5.10701 17.7312C8.27462 17.7312 11.4422 17.7312 14.6099 17.7312C14.6769 17.7312 14.7466 17.7406 14.8094 17.7236C14.981 17.6786 15.0905 17.5665 15.0795 17.3822C15.0693 17.2022 14.9648 17.0901 14.7797 17.0714C14.705 17.0638 14.6294 17.068 14.5538 17.068C12.9912 17.068 11.4278 17.068 9.86522 17.068L9.86607 17.0689ZM8.33322 19.6989C7.27253 19.6989 6.21185 19.6989 5.15117 19.6998C5.0603 19.6998 4.96604 19.7023 4.87856 19.7235C4.70957 19.7635 4.60172 19.89 4.64588 20.0522C4.6773 20.1677 4.7877 20.2764 4.8896 20.3511C4.95245 20.397 5.06709 20.3774 5.15796 20.3774C7.26234 20.3783 9.36758 20.3783 11.472 20.3774C11.5713 20.3774 11.6953 20.3953 11.7641 20.3452C11.866 20.2704 11.9832 20.1456 11.9908 20.0344C11.9976 19.9384 11.877 19.8093 11.7811 19.7388C11.7114 19.6879 11.5892 19.7006 11.4898 19.7006C10.4376 19.6981 9.38541 19.6989 8.33322 19.6989ZM3.9079 20.0454C3.9113 19.8382 3.76438 19.7023 3.53339 19.6998C3.30834 19.6972 3.14444 19.8356 3.14105 20.0318C3.1368 20.2314 3.29306 20.3732 3.5198 20.3766C3.75249 20.38 3.9045 20.2501 3.9079 20.0454ZM3.51725 7.16772C3.74824 7.17196 3.9028 7.04118 3.9079 6.83737C3.91299 6.62761 3.77117 6.49598 3.53594 6.49258C3.30325 6.48919 3.14614 6.61912 3.14105 6.81784C3.13595 7.01656 3.29391 7.16262 3.51725 7.16687V7.16772ZM3.52575 9.79947C3.76863 9.79947 3.90875 9.67888 3.90875 9.46912C3.90875 9.26106 3.76353 9.13283 3.52744 9.13283C3.29645 9.13283 3.1419 9.26701 3.14105 9.46827C3.14105 9.67548 3.28372 9.79862 3.5266 9.79862L3.52575 9.79947ZM3.90875 12.1221C3.91384 11.9107 3.77457 11.7858 3.53424 11.7833C3.29051 11.7807 3.14529 11.9005 3.1402 12.106C3.13595 12.3047 3.29306 12.4491 3.5181 12.4533C3.75079 12.4567 3.90365 12.3276 3.9079 12.123L3.90875 12.1221ZM3.52235 17.7321C3.76183 17.7338 3.9062 17.6098 3.90875 17.4018C3.91129 17.1903 3.77372 17.0697 3.52999 17.0689C3.28457 17.0689 3.14274 17.1869 3.1402 17.3933C3.1385 17.5971 3.28796 17.7296 3.52235 17.7312V17.7321ZM3.51895 15.0859C3.76013 15.0885 3.9045 14.9679 3.9079 14.7607C3.9113 14.5526 3.76523 14.4176 3.53339 14.415C3.30919 14.4116 3.14529 14.5509 3.1402 14.7471C3.1351 14.9517 3.28202 15.0834 3.51895 15.0859Z" fill="#33B89F"/>
<path id="Vector_2" d="M18.2186 16.2212C18.2186 16.2789 18.2186 16.346 18.2186 16.4123C18.2186 18.2135 18.222 20.0138 18.2169 21.8151C18.2143 22.8868 17.636 23.674 16.6721 23.9228C16.4726 23.9746 16.2603 23.9967 16.053 23.9976C11.4222 24.0018 6.79053 24.0018 2.1597 24.0001C0.895197 24.0001 0.00605605 23.1263 0.0043576 21.8575C-0.00158699 15.8925 -0.00158699 9.92843 0.00520683 3.96516C0.00690528 2.7049 0.893498 1.84973 2.1512 1.84803C2.88663 1.84718 3.62206 1.84803 4.35834 1.84803C4.43987 1.84803 4.5214 1.84803 4.61566 1.84803V2.66584C4.51036 2.66584 4.42034 2.66584 4.33032 2.66584C3.61952 2.66584 2.90956 2.66329 2.19876 2.66584C1.31726 2.67009 0.833203 3.15669 0.833203 4.03394C0.833203 9.9556 0.840846 15.8773 0.823862 21.7989C0.821314 22.5726 1.37926 23.1772 2.19706 23.1721C6.04236 23.1492 9.88766 23.1611 13.733 23.1653C13.9325 23.1653 14.0803 23.111 14.2179 22.9649C15.2055 21.9187 16.1974 20.8758 17.1936 19.8364C17.3371 19.6869 17.3974 19.5306 17.3957 19.3217C17.3872 18.3001 17.3889 17.2776 17.3974 16.256C17.3974 16.166 17.4492 16.0454 17.518 15.9962C17.5681 15.9605 17.6887 16.0106 17.7719 16.0395C17.912 16.0879 18.047 16.1499 18.2186 16.2204V16.2212Z" fill="#33B89F"/>
<path id="Vector_3" d="M15.1731 15.9834C12.4777 15.9911 10.414 14.1814 10.1126 11.7959C9.78305 9.19725 11.4824 6.86697 14.0555 6.38716C16.6609 5.9014 19.2579 7.75271 19.6494 10.3709C19.8252 11.5488 19.623 12.6494 19.0091 13.6727C18.8333 13.9648 18.8358 14.0472 19.0812 14.2824C19.2273 14.4217 19.2494 14.5211 19.0889 14.6671C18.8358 14.8981 18.5972 15.1452 18.3602 15.3932C18.2532 15.5045 18.176 15.5248 18.052 15.4051C17.7284 15.0917 17.7199 15.0968 17.325 15.327C16.5718 15.7643 15.7608 15.986 15.1739 15.9843L15.1731 15.9834ZM10.9974 11.1471C10.9974 13.3185 12.7375 15.0815 14.8979 15.0985C17.0771 15.1164 18.8562 13.3457 18.857 11.1573C18.8579 8.96965 17.1076 7.21091 14.9336 7.2143C12.7477 7.2177 10.9974 8.96626 10.9974 11.1462V11.1471Z" fill="#33B89F"/>
<path id="Vector_4" d="M5.30859 3.31898V1.17892C5.56251 1.17892 5.80879 1.17892 6.05506 1.17892C6.41429 1.17892 6.77351 1.18147 7.13273 1.17723C7.29833 1.17553 7.46308 1.14241 7.51404 0.956426C7.6618 0.41377 8.07877 0.196368 8.56793 0.0732303C9.09615 -0.0600983 9.61248 -0.0108432 10.1016 0.237131C10.3768 0.377254 10.6018 0.569179 10.6817 0.889337C10.7419 1.13307 10.9271 1.18062 11.1445 1.18062C11.6795 1.17892 12.2137 1.18062 12.7487 1.18062C12.7979 1.18062 12.8463 1.18827 12.91 1.19336V3.31982H5.30859V3.31898Z" fill="#33B89F"/>
<path id="Vector_5" d="M24.1647 19.2153C24.1095 19.3189 24.079 19.4199 24.0144 19.4879C23.7486 19.7656 23.4769 20.0382 23.1983 20.304C22.9996 20.4942 22.834 20.4883 22.6319 20.2878C21.8447 19.5023 21.0625 18.7108 20.2727 17.927C20.1462 17.8013 20.153 17.7164 20.2753 17.5975C20.6235 17.2595 20.9674 16.9173 21.3062 16.5699C21.4277 16.4459 21.5168 16.4493 21.6391 16.5725C22.4213 17.364 23.2094 18.1486 23.9915 18.9393C24.0637 19.0123 24.1044 19.1159 24.1647 19.2144V19.2153Z" fill="#33B89F"/>
<path id="Vector_6" d="M13.604 2.66566V1.84786C13.931 1.84786 14.246 1.84786 14.5602 1.84786C15.1199 1.84786 15.6795 1.84276 16.2392 1.8504C17.2404 1.86314 18.1406 2.675 18.189 3.67964C18.2365 4.66474 18.2102 5.65324 18.2153 6.64089C18.2153 6.66382 18.2017 6.6859 18.1881 6.72666C17.941 6.5772 17.6973 6.44047 17.4671 6.28252C17.417 6.24855 17.3967 6.14155 17.3967 6.06766C17.3916 5.38149 17.3941 4.69531 17.3933 4.00914C17.3924 3.18114 16.9033 2.67755 16.0761 2.66821C15.3492 2.65972 14.6231 2.66651 13.8961 2.66651C13.8061 2.66651 13.7153 2.66651 13.6049 2.66651L13.604 2.66566Z" fill="#33B89F"/>
<path id="Vector_7" d="M14.2323 21.9814C14.2323 21.3666 14.2195 20.818 14.2382 20.2702C14.2467 20.0256 14.4785 19.8448 14.7444 19.8405C15.2284 19.832 15.7125 19.838 16.2653 19.838C15.58 20.5615 14.9303 21.246 14.2331 21.9814H14.2323Z" fill="#33B89F"/>
<path id="Vector_8" d="M18.937 15.7887C19.117 15.6053 19.326 15.3921 19.5306 15.1841C19.8932 15.556 20.2525 15.9255 20.6125 16.2949C20.4206 16.4817 20.2075 16.6906 20.0079 16.8851C19.6623 16.5318 19.303 16.1641 18.937 15.7887Z" fill="#33B89F"/>
<path id="Vector_9" d="M14.9141 14.42C13.0874 14.4132 11.6633 12.9601 11.6709 11.1122C11.6786 9.30846 13.1452 7.87156 14.9702 7.8809C16.7739 7.8894 18.1981 9.3662 18.1913 11.2192C18.1845 12.989 16.7119 14.4267 14.915 14.42H14.9141ZM14.425 11.5088C14.2084 11.3356 14.0156 11.1768 13.8169 11.0247C13.6208 10.8744 13.4348 10.8804 13.3065 11.0332C13.1741 11.1912 13.1987 11.3738 13.3898 11.5334C13.6522 11.7525 13.9103 11.9801 14.194 12.1687C14.2976 12.2374 14.5209 12.2714 14.5991 12.2086C15.2632 11.6769 15.9103 11.1258 16.5514 10.5662C16.6882 10.4473 16.6771 10.2485 16.5302 10.1483C16.4291 10.0787 16.2627 10.0863 16.1268 10.0923C16.0665 10.0948 16.0079 10.1764 15.9502 10.2248C15.4466 10.6485 14.943 11.0723 14.4241 11.5097L14.425 11.5088Z" fill="#33B89F"/>
</g>
<defs>
<clipPath id="clip0_113_1929">
<rect width="24.1648" height="24" fill="white"/>
</clipPath>
</defs>
</svg>
