<svg width="23" height="24" viewBox="0 0 23 24" fill="none" xmlns="http://www.w3.org/2000/svg">
<g id="Transcription 1" clip-path="url(#clip0_113_1886)">
<path id="Vector" d="M12.9384 0C13.5187 0.138324 13.9269 0.525461 14.3301 0.935372C15.3827 2.00401 16.4454 3.06252 17.5115 4.11766C17.9417 4.54275 18.1517 5.04122 18.1432 5.64765C18.1314 6.51471 18.139 7.38176 18.1407 8.24881C18.1407 8.42003 18.0943 8.5786 17.9223 8.61993C17.8101 8.64692 17.6431 8.63173 17.5638 8.56257C17.4811 8.49088 17.4415 8.33231 17.4407 8.21086C17.4305 7.35983 17.4364 6.50796 17.4339 5.65609C17.4339 5.5262 17.4137 5.39547 17.4019 5.24955C17.1303 5.24955 16.8815 5.24955 16.6318 5.24955C15.8348 5.24955 15.0377 5.25124 14.2407 5.24955C13.4377 5.24787 12.8928 4.70469 12.8895 3.89584C12.8861 2.93516 12.8886 1.97449 12.8886 1.01297C12.8886 0.927781 12.8886 0.843437 12.8886 0.737164C12.7562 0.724512 12.6415 0.703426 12.5259 0.703426C8.82242 0.70174 5.11889 0.70174 1.41535 0.703426C0.941342 0.703426 0.710241 0.933685 0.70771 1.40938C0.704336 2.03437 0.70771 2.65936 0.706023 3.28434C0.70518 3.57449 0.568543 3.7398 0.345032 3.73221C0.134173 3.72377 0.00175344 3.55762 0.00175344 3.28687C6.65628e-05 2.64671 6.65628e-05 2.00569 0.00175344 1.36552C0.00259687 0.712704 0.334068 0.255561 0.95315 0.0455456C0.980984 0.0362678 1.0046 0.0151819 1.0299 0C4.99996 0 8.96918 0 12.9392 0H12.9384ZM16.8545 4.54528C15.7664 3.4564 14.6826 2.37259 13.603 1.29215C13.6089 1.28118 13.5963 1.29383 13.5963 1.30648C13.5946 2.18872 13.5887 3.0718 13.5971 3.95403C13.6005 4.28803 13.8358 4.53516 14.1774 4.54022C15.0748 4.55372 15.9722 4.54444 16.8545 4.54444V4.54528Z" fill="#3F3EED"/>
<path id="Vector_2" d="M13.8562 23.2982C13.4134 22.9187 12.9579 22.5442 12.5227 22.1469C12.3456 21.9858 12.2056 21.7817 12.0614 21.5877C11.9079 21.3819 11.9332 21.1829 12.1103 21.0538C12.2764 20.9324 12.4907 20.9754 12.6366 21.1761C13.3636 22.1731 14.3243 22.8301 15.5161 23.1405C18.3416 23.876 21.2548 21.9631 21.7145 19.076C22.1565 16.3036 20.3102 13.7252 17.5589 13.2706C14.7823 12.8118 12.1305 14.7652 11.756 17.5418C11.6557 18.2874 11.7164 19.0178 11.9146 19.7431C11.9458 19.8587 11.8876 20.0434 11.8033 20.1303C11.735 20.2003 11.5427 20.2188 11.4448 20.1733C11.3444 20.1269 11.2567 19.986 11.2247 19.8696C10.7203 18.0217 11.0037 16.2994 12.171 14.777C13.3822 13.1972 15.0159 12.444 17.0157 12.5098C17.133 12.514 17.2494 12.5166 17.3666 12.5182C17.3801 12.5182 17.3944 12.5081 17.4358 12.4913C17.4358 12.4187 17.4358 12.3352 17.4358 12.2517C17.4358 11.5095 17.4349 10.7673 17.4358 10.025C17.4358 9.74671 17.5623 9.59743 17.7866 9.59743C18.0084 9.59743 18.1392 9.75262 18.1392 10.0267C18.1409 10.839 18.1426 11.6512 18.1366 12.4643C18.1358 12.611 18.1738 12.6718 18.3256 12.7215C20.6273 13.4696 22.0291 15.0325 22.434 17.4195C22.9434 20.4246 20.7834 23.3977 17.7622 23.9046C17.418 23.9628 17.0646 23.9949 16.7155 23.9957C11.6059 24.0016 6.49637 24 1.38599 23.9991C0.550143 23.9991 -0.000621407 23.4568 -0.000621407 22.6294C-0.00146484 16.8021 -0.000621407 10.9748 -0.000621407 5.14745C-0.000621407 5.09263 -0.00399515 5.03781 0.00275234 4.98383C0.027212 4.79237 0.191682 4.64223 0.370491 4.66248C0.561108 4.68356 0.688467 4.78646 0.701962 4.99226C0.707866 5.08588 0.706179 5.1795 0.706179 5.27312C0.706179 11.0068 0.706179 16.7405 0.706179 22.4742C0.706179 23.1059 0.899326 23.2982 1.53106 23.2982C5.56269 23.2982 9.59432 23.2982 13.6259 23.2982C13.7111 23.2982 13.7963 23.2982 13.8537 23.2982H13.8562Z" fill="#3F3EED"/>
<path id="Vector_3" d="M8.61479 9.47032C10.6686 9.47032 12.7232 9.47032 14.7769 9.47032C14.8554 9.47032 14.9355 9.46104 15.0106 9.47791C15.1919 9.51924 15.2948 9.63816 15.2914 9.82794C15.2881 10.016 15.1843 10.1316 14.9996 10.1678C14.9465 10.178 14.8908 10.1712 14.836 10.1712C10.6812 10.1712 6.5256 10.1712 2.37083 10.1712C2.316 10.1712 2.26034 10.1763 2.2072 10.1687C2.00646 10.1383 1.90019 10.0093 1.90188 9.81613C1.90272 9.6331 2.00899 9.50827 2.19539 9.47622C2.2713 9.46273 2.35143 9.47032 2.42902 9.47032C4.49123 9.47032 6.55259 9.47032 8.61479 9.47032Z" fill="#3F3EED"/>
<path id="Vector_4" d="M18.4963 16.4995C18.4963 16.8343 18.5419 17.1776 18.4879 17.504C18.3336 18.4293 17.5475 19.0298 16.6146 18.9809C15.756 18.9353 15.0264 18.2235 14.9767 17.3168C14.9438 16.7112 14.9404 16.0955 15.0104 15.495C15.1184 14.5706 15.9652 13.9498 16.9208 14.0206C17.7862 14.0847 18.5056 14.8632 18.5157 15.7505C18.5191 16.0002 18.5157 16.2498 18.5157 16.5003C18.509 16.5003 18.5022 16.5003 18.4955 16.5003L18.4963 16.4995Z" fill="#3F3EED"/>
<path id="Vector_5" d="M7.09593 7.95511C8.6352 7.95511 10.1745 7.95511 11.7137 7.95511C11.7922 7.95511 11.8706 7.95427 11.9482 7.96102C12.1414 7.97788 12.2485 8.10103 12.2662 8.27983C12.2831 8.45105 12.192 8.58432 12.0241 8.63745C11.9373 8.66444 11.8403 8.66613 11.7475 8.66613C8.63773 8.66782 5.52714 8.66782 2.41738 8.66613C2.3322 8.66613 2.24279 8.66866 2.16267 8.64589C1.9847 8.59359 1.88686 8.4637 1.90373 8.2773C1.9206 8.09344 2.02772 7.97704 2.22086 7.96102C2.29846 7.95427 2.3769 7.95511 2.45534 7.95511C4.0022 7.95511 5.54991 7.95511 7.09677 7.95511H7.09593Z" fill="#3F3EED"/>
<path id="Vector_6" d="M17.1184 20.4932V21.7786C17.3166 21.7786 17.503 21.7735 17.6886 21.7803C17.945 21.7896 18.096 21.9279 18.0926 22.1379C18.0901 22.3488 17.934 22.4913 17.6827 22.493C17.0577 22.4972 16.4336 22.4972 15.8086 22.493C15.5623 22.4913 15.397 22.3429 15.3928 22.1396C15.3885 21.9355 15.5488 21.7929 15.7993 21.7803C15.8929 21.7752 15.9865 21.7786 16.0802 21.7786C16.1721 21.7786 16.264 21.7786 16.372 21.7786V20.4966C16.2261 20.4628 16.0692 20.4316 15.914 20.3912C15.1794 20.1972 14.5814 19.7957 14.1192 19.1935C13.9437 18.9649 13.9505 18.754 14.1327 18.6182C14.3089 18.4858 14.5122 18.5407 14.6902 18.7684C15.7537 20.1238 17.7021 20.1347 18.7817 18.7912C18.8011 18.7667 18.8188 18.7405 18.839 18.7169C18.9875 18.5381 19.1916 18.4985 19.3518 18.6166C19.5281 18.7464 19.5509 18.9472 19.3991 19.1521C18.9369 19.7754 18.3304 20.1913 17.5789 20.3912C17.4288 20.4308 17.2762 20.4595 17.1184 20.4949V20.4932Z" fill="#3F3EED"/>
<path id="Vector_7" d="M6.77443 14.0173C8.21923 14.0173 9.6632 14.0173 11.108 14.0173C11.1704 14.0173 11.2337 14.0122 11.2952 14.0198C11.496 14.0443 11.6006 14.1708 11.6158 14.3622C11.6301 14.5436 11.4766 14.6988 11.2834 14.7165C11.2371 14.7207 11.1898 14.7182 11.1426 14.7182C8.21502 14.7182 5.2866 14.7182 2.35903 14.7182C2.06299 14.7182 1.90189 14.5967 1.89852 14.3732C1.8943 14.148 2.05793 14.0181 2.34807 14.0173C2.58254 14.0164 2.81618 14.0173 3.05065 14.0173C4.29219 14.0173 5.53373 14.0173 6.77527 14.0173H6.77443Z" fill="#3F3EED"/>
<path id="Vector_8" d="M10.8239 6.43024C12.1439 6.43024 13.463 6.43024 14.783 6.43193C14.8825 6.43193 14.988 6.43867 15.0807 6.47157C15.2385 6.52808 15.3312 6.6664 15.2823 6.82075C15.246 6.9363 15.1381 7.04257 15.0369 7.12017C14.9795 7.16403 14.8716 7.14969 14.7864 7.14969C12.1473 7.15053 9.50815 7.15053 6.86903 7.15053C6.83024 7.15053 6.79059 7.15138 6.7518 7.14969C6.50214 7.13451 6.3402 6.99281 6.33936 6.79207C6.33936 6.58121 6.51057 6.43193 6.77204 6.43108C8.12322 6.42855 9.47357 6.43024 10.8248 6.43024H10.8239Z" fill="#3F3EED"/>
<path id="Vector_9" d="M6.30396 16.2387C5.0464 16.2387 3.78799 16.2387 2.53043 16.2387C2.46801 16.2387 2.4056 16.2395 2.34318 16.2387C2.05388 16.2311 1.8911 16.0961 1.89869 15.8718C1.90544 15.6601 2.07328 15.5234 2.3415 15.5234C4.99748 15.5226 7.65431 15.5217 10.3103 15.5234C10.5852 15.5234 10.7362 15.6559 10.7371 15.8811C10.7379 16.1088 10.5962 16.2361 10.312 16.237C8.97597 16.2404 7.63997 16.2387 6.30396 16.2387Z" fill="#3F3EED"/>
<path id="Vector_10" d="M9.56871 13.2126C8.65527 13.2126 7.74183 13.2142 6.82839 13.21C6.7297 13.21 6.59982 13.2134 6.53909 13.156C6.44715 13.0692 6.33919 12.9207 6.35691 12.8187C6.3763 12.704 6.51716 12.5969 6.62765 12.5176C6.68669 12.4754 6.79381 12.4965 6.87984 12.4965C8.6831 12.4956 10.4864 12.4956 12.2896 12.4965C12.6582 12.4965 12.8404 12.6171 12.8379 12.8558C12.8353 13.0962 12.6557 13.2126 12.2854 13.2126C11.3796 13.2126 10.4746 13.2126 9.56871 13.2126Z" fill="#3F3EED"/>
<path id="Vector_11" d="M4.90041 11.6916C4.08143 11.6916 3.26161 11.6916 2.44264 11.6916C2.35745 11.6916 2.25033 11.7144 2.19045 11.6731C2.07996 11.5963 1.93404 11.4867 1.92139 11.377C1.90874 11.2657 2.02092 11.1206 2.1137 11.0245C2.16514 10.9713 2.28913 10.9781 2.38106 10.9781C4.06625 10.9756 5.75228 10.9764 7.43747 10.9764C7.47627 10.9764 7.51591 10.9747 7.55471 10.9789C7.76641 11.0017 7.91654 11.1535 7.91401 11.3416C7.91148 11.5297 7.76219 11.6824 7.54627 11.6883C7.20299 11.6984 6.85972 11.6925 6.51644 11.6925C5.97832 11.6925 5.43937 11.6925 4.90125 11.6925L4.90041 11.6916Z" fill="#3F3EED"/>
<path id="Vector_12" d="M4.4164 17.7594C3.74418 17.7594 3.0728 17.7611 2.40059 17.7578C2.30865 17.7578 2.21081 17.7519 2.12562 17.7215C1.95862 17.6616 1.85826 17.5174 1.91477 17.3563C1.95609 17.2382 2.0843 17.1378 2.19563 17.0619C2.25636 17.0206 2.36263 17.0434 2.44782 17.0434C3.76021 17.0434 5.07344 17.0434 6.38582 17.0434C6.42462 17.0434 6.46426 17.0434 6.50306 17.0434C6.77887 17.0526 6.9349 17.1808 6.93406 17.3993C6.93322 17.6177 6.77296 17.7569 6.50306 17.7586C5.80807 17.762 5.11224 17.7594 4.41724 17.7594H4.4164Z" fill="#3F3EED"/>
<path id="Vector_13" d="M10.5919 11.6917C10.1238 11.6917 9.6557 11.6934 9.1876 11.6917C8.873 11.69 8.71527 11.5652 8.72033 11.329C8.72539 11.103 8.8848 10.9773 9.17916 10.9773C10.1306 10.9756 11.082 10.9773 12.0342 10.9773C12.2341 10.9773 12.4121 11.0515 12.4348 11.2548C12.4483 11.3754 12.3648 11.5281 12.2805 11.6293C12.2307 11.6883 12.0941 11.69 11.9954 11.6909C11.5273 11.6968 11.0592 11.6934 10.5911 11.6934L10.5919 11.6917Z" fill="#3F3EED"/>
<path id="Vector_14" d="M9.0241 17.0433C9.31255 17.0433 9.60101 17.0391 9.88946 17.0442C10.1611 17.0492 10.3171 17.1884 10.3103 17.4077C10.3036 17.6169 10.1476 17.7552 9.89452 17.7569C9.31761 17.7611 8.73986 17.7611 8.16295 17.7569C7.90148 17.7552 7.73448 17.6034 7.74039 17.3891C7.74545 17.185 7.90401 17.0492 8.15873 17.0442C8.44719 17.0383 8.73564 17.0425 9.0241 17.0425V17.0433Z" fill="#3F3EED"/>
<path id="Vector_15" d="M4.42877 6.43102C4.6624 6.43102 4.89603 6.42596 5.12967 6.43271C5.3827 6.43946 5.52946 6.57694 5.52946 6.79286C5.52946 7.00118 5.39451 7.14204 5.14907 7.1471C4.66662 7.15722 4.18333 7.15722 3.70004 7.1471C3.45544 7.14204 3.32387 7.00118 3.32471 6.78948C3.32555 6.57272 3.47147 6.43946 3.72703 6.43271C3.96066 6.4268 4.19429 6.43186 4.42793 6.43186L4.42877 6.43102Z" fill="#3F3EED"/>
<path id="Vector_16" d="M14.1877 8.66692C13.9532 8.66692 13.7187 8.67114 13.4851 8.66608C13.2312 8.66017 13.0819 8.52438 13.0811 8.3093C13.0794 8.08832 13.2194 7.96012 13.4834 7.95759C13.9515 7.95253 14.4204 7.95337 14.8886 7.95759C15.1526 7.96012 15.2934 8.08832 15.2934 8.30761C15.2934 8.521 15.1416 8.66101 14.8902 8.66692C14.6558 8.67198 14.4221 8.66776 14.1877 8.66776V8.66692Z" fill="#3F3EED"/>
<path id="Vector_17" d="M4.42455 13.2125C4.19092 13.2125 3.95729 13.2167 3.72365 13.2116C3.47062 13.2057 3.32471 13.0691 3.32471 12.8523C3.32471 12.6398 3.45544 12.5057 3.70341 12.5014C4.18586 12.493 4.66915 12.493 5.15159 12.5014C5.39619 12.5057 5.5303 12.6457 5.52861 12.8557C5.52692 13.0632 5.38354 13.2032 5.14822 13.2108C4.907 13.2184 4.66577 13.2125 4.42371 13.2125H4.42455Z" fill="#3F3EED"/>
</g>
<defs>
<clipPath id="clip0_113_1886">
<rect width="22.5096" height="24" fill="white"/>
</clipPath>
</defs>
</svg>
