<svg width="21" height="24" viewBox="0 0 21 24" fill="none" xmlns="http://www.w3.org/2000/svg">
<g id="Knowledge Base 4" clip-path="url(#clip0_113_1861)">
<g id="Group">
<path id="Vector" d="M12.6944 22.8353H8.12129C7.92898 22.8353 7.77295 22.6793 7.77295 22.487C7.77295 22.2947 7.92898 22.1387 8.12129 22.1387H12.6944C12.8867 22.1387 13.0427 22.2947 13.0427 22.487C13.0427 22.6793 12.8867 22.8353 12.6944 22.8353Z" fill="#EBA43B"/>
<path id="Vector_2" d="M11.8764 23.9999H8.93951C8.78263 23.9999 8.65527 23.8725 8.65527 23.7157V23.5875C8.65527 23.4306 8.78263 23.3032 8.93951 23.3032H11.8764C12.0332 23.3032 12.1606 23.4306 12.1606 23.5875V23.7157C12.1606 23.8725 12.0332 23.9999 11.8764 23.9999Z" fill="#EBA43B"/>
<path id="Vector_3" d="M12.6944 21.6703H8.12129C7.92898 21.6703 7.77295 21.5143 7.77295 21.322C7.77295 21.1297 7.92898 20.9736 8.12129 20.9736H12.6944C12.8867 20.9736 13.0427 21.1297 13.0427 21.322C13.0427 21.5143 12.8867 21.6703 12.6944 21.6703Z" fill="#EBA43B"/>
<g id="Group_2">
<path id="Vector_4" d="M13.0107 19.809H12.9508C12.9508 16.0953 16.5118 13.7733 16.5118 10.1988C16.5118 7.64491 14.0279 4.53516 10.407 4.53516C6.29782 4.53516 4.30225 7.64575 4.30225 10.1988C4.30225 13.7742 7.86324 16.0953 7.86324 19.809H7.80335C7.58406 19.809 7.40694 19.965 7.40694 20.1573C7.40694 20.3496 7.58406 20.5056 7.80335 20.5056H13.0099C13.2292 20.5056 13.4063 20.3496 13.4063 20.1573C13.4063 19.965 13.2292 19.809 13.0099 19.809H13.0107ZM10.0933 19.5062C10.0933 19.6234 9.99798 19.7179 9.88074 19.7179C9.7635 19.7179 9.66904 19.6226 9.66904 19.5062V17.2162L8.40219 15.1996C8.33978 15.1 8.3693 14.9693 8.46883 14.9069C8.56751 14.8445 8.69908 14.874 8.7615 14.9735L10.0612 17.0416C10.0823 17.0754 10.0941 17.1142 10.0941 17.1547V19.5062H10.0933ZM12.4136 15.1996L11.1467 17.2162V19.5062C11.1467 19.6234 11.0514 19.7179 10.9342 19.7179C10.817 19.7179 10.7225 19.6226 10.7225 19.5062V17.1555C10.7225 17.1159 10.7343 17.0762 10.7554 17.0425L12.0551 14.9744C12.1175 14.8749 12.2491 14.8453 12.3478 14.9069C12.4473 14.9693 12.4768 15.1 12.4144 15.1996H12.4136ZM12.2339 14.2524H8.581C8.46376 14.2524 8.3693 14.1571 8.3693 14.0407C8.3693 13.9243 8.46461 13.8281 8.581 13.8281H12.2339C12.3512 13.8281 12.4465 13.9235 12.4465 14.0407C12.4465 14.1579 12.3512 14.2524 12.2339 14.2524ZM12.2339 13.312H8.581C8.46376 13.312 8.3693 13.2167 8.3693 13.1003C8.3693 12.9839 8.46461 12.8877 8.581 12.8877H12.2339C12.3512 12.8877 12.4465 12.983 12.4465 13.1003C12.4465 13.2175 12.3512 13.312 12.2339 13.312ZM12.2339 12.3715H8.581C8.46376 12.3715 8.3693 12.2762 8.3693 12.1598C8.3693 12.0434 8.46461 11.9473 8.581 11.9473H12.2339C12.3512 11.9473 12.4465 12.0426 12.4465 12.1598C12.4465 12.2771 12.3512 12.3715 12.2339 12.3715Z" fill="#EBA43B"/>
<path id="Vector_5" d="M12.4463 12.1608C12.4463 12.278 12.351 12.3725 12.2338 12.3725H8.58084C8.46361 12.3725 8.36914 12.2772 8.36914 12.1608C8.36914 12.0444 8.46445 11.9482 8.58084 11.9482H12.2338C12.351 11.9482 12.4463 12.0435 12.4463 12.1608Z" fill="#EBA43B"/>
</g>
</g>
<g id="Group_3">
<path id="Vector_6" d="M10.651 0.366941L10.4073 10.543L9.93497 0.375376C9.92569 0.178011 10.0784 0.0101675 10.2766 0.000889716C10.4748 -0.00838809 10.6418 0.144274 10.651 0.342482C10.651 0.350916 10.651 0.35935 10.651 0.367785V0.366941Z" fill="#EBA43B"/>
<path id="Vector_7" d="M7.15663 0.897685L10.4081 10.5432L6.4861 1.14987C6.41019 0.96769 6.49622 0.757674 6.6784 0.680921C6.86058 0.605012 7.0706 0.691042 7.14735 0.873225C7.15073 0.880816 7.1541 0.88925 7.15663 0.896841V0.897685Z" fill="#EBA43B"/>
<path id="Vector_8" d="M4.05347 2.59096L10.4079 10.5429L3.5103 3.05738C3.37619 2.91231 3.38547 2.68542 3.53139 2.55132C3.67646 2.41721 3.90334 2.42649 4.03745 2.5724C4.04335 2.57831 4.04926 2.58505 4.05347 2.5918V2.59096Z" fill="#EBA43B"/>
<path id="Vector_9" d="M1.71691 5.24387L10.4077 10.5423L1.36604 5.86802C1.19061 5.77693 1.12144 5.56101 1.21253 5.38557C1.30363 5.21014 1.51955 5.14097 1.69498 5.23207C1.70173 5.23544 1.71016 5.23966 1.71691 5.24387Z" fill="#EBA43B"/>
<path id="Vector_10" d="M0.428433 8.53564L10.4071 10.5422L0.312038 9.24244C0.115518 9.21714 -0.0228061 9.03749 0.00249701 8.84181C0.0278001 8.64613 0.207452 8.50696 0.40313 8.53227C0.411564 8.53311 0.419998 8.5348 0.427589 8.53648L0.428433 8.53564Z" fill="#EBA43B"/>
<path id="Vector_11" d="M0.343902 12.0699L10.4078 10.5425L0.476321 12.7742C0.283174 12.8172 0.091714 12.6958 0.0486987 12.5035C0.00568339 12.3112 0.127138 12.1189 0.319442 12.0758C0.327033 12.0742 0.336311 12.0725 0.343902 12.0708V12.0699Z" fill="#EBA43B"/>
<path id="Vector_12" d="M1.47321 15.4197L10.4077 10.543L1.83757 16.0354C1.67141 16.1425 1.44959 16.0936 1.34247 15.9275C1.23536 15.7613 1.28428 15.5395 1.45043 15.4324C1.45718 15.4282 1.46562 15.4231 1.47236 15.4197H1.47321Z" fill="#EBA43B"/>
<path id="Vector_13" d="M3.67959 18.1811L10.4068 10.543L4.23288 18.6357C4.11312 18.7926 3.88792 18.823 3.73104 18.7032C3.57416 18.5835 3.5438 18.3583 3.66356 18.2014C3.66863 18.1946 3.67453 18.1879 3.67959 18.182V18.1811Z" fill="#EBA43B"/>
<path id="Vector_14" d="M16.7622 18.4944L10.4077 10.5425L17.3053 18.028C17.4394 18.1731 17.4302 18.3999 17.2843 18.534C17.1392 18.6682 16.9123 18.6589 16.7782 18.513C16.7723 18.5071 16.7664 18.5003 16.7613 18.4936L16.7622 18.4944Z" fill="#EBA43B"/>
<path id="Vector_15" d="M19.0985 15.8414L10.4077 10.543L19.4494 15.2181C19.6248 15.3092 19.694 15.5252 19.6029 15.7006C19.5118 15.876 19.2959 15.9452 19.1204 15.8541C19.1137 15.8499 19.1052 15.8457 19.0985 15.8414Z" fill="#EBA43B"/>
<path id="Vector_16" d="M20.3864 12.5495L10.4077 10.543L20.5028 11.8435C20.6993 11.8689 20.8377 12.0485 20.8124 12.2442C20.7871 12.4399 20.6074 12.579 20.4117 12.5537C20.4033 12.5529 20.3949 12.5512 20.3873 12.5495H20.3864Z" fill="#EBA43B"/>
<path id="Vector_17" d="M20.4711 9.0158L10.4072 10.5433L20.3387 8.31237C20.5318 8.26936 20.7233 8.39081 20.7663 8.58311C20.8093 8.77626 20.6879 8.96772 20.4956 9.01074C20.488 9.01242 20.4787 9.01411 20.4711 9.0158Z" fill="#EBA43B"/>
<path id="Vector_18" d="M19.3418 5.6657L10.4072 10.5425L18.9765 5.04999C19.1427 4.94288 19.3645 4.9918 19.4716 5.15795C19.5788 5.32411 19.5298 5.54593 19.3637 5.65305C19.3569 5.65727 19.3493 5.66233 19.3418 5.6657Z" fill="#EBA43B"/>
<path id="Vector_19" d="M17.135 2.90405L10.4077 10.5422L16.5817 2.45028C16.7014 2.2934 16.9266 2.26304 17.0835 2.3828C17.2404 2.50257 17.2708 2.72777 17.151 2.88465C17.1459 2.8914 17.14 2.89814 17.135 2.90405Z" fill="#EBA43B"/>
<path id="Vector_20" d="M14.1167 1.06392L10.4072 10.5425L13.4419 0.826912C13.501 0.637982 13.7017 0.532553 13.8906 0.591593C14.0796 0.650634 14.185 0.851372 14.1259 1.0403C14.1234 1.04789 14.12 1.05633 14.1175 1.06392H14.1167Z" fill="#EBA43B"/>
</g>
</g>
<defs>
<clipPath id="clip0_113_1861">
<rect width="20.8152" height="24" fill="white"/>
</clipPath>
</defs>
</svg>
