<svg width="24" height="28" viewBox="0 0 24 28" fill="none" xmlns="http://www.w3.org/2000/svg">
<g id="Content Management 6" clip-path="url(#clip0_113_1940)">
<g id="Group">
<g id="Group_2">
<path id="Vector" d="M9.78701 12.2402L9.4751 15.1675H13.9372L13.691 12.2402H9.78701Z" fill="#5585FF"/>
<path id="Vector_2" opacity="0.1" d="M13.7627 13.4879L13.6581 12.2402H9.75407L9.64941 13.2211C10.2691 13.8408 11.0109 14.2246 11.8523 14.2246C12.5643 14.2246 13.2066 13.9496 13.7617 13.4889L13.7627 13.4879Z" fill="#5585FF"/>
<path id="Vector_3" d="M11.0508 3.34787C9.64311 3.56948 9.24501 3.89371 9.22142 3.90704C7.58492 4.81815 7.4659 7.38319 7.4659 7.38319C7.4659 7.38319 6.69536 2.06432 8.76689 1.73189C8.95465 0.272893 12.4175 -0.430955 13.938 0.281101C16.2599 1.36868 16.3902 3.20422 15.9511 6.96047C15.6453 4.36157 15.2749 4.11943 13.938 3.59719C13.1788 3.29964 11.8419 3.22269 11.0518 3.34787H11.0508Z" fill="#5585FF"/>
<path id="Vector_4" d="M11.7056 15.9801C13.0323 15.9801 14.1075 15.6159 14.1075 15.1665H9.30371C9.30371 15.6159 10.379 15.9801 11.7056 15.9801Z" fill="#5585FF"/>
<path id="Vector_5" d="M13.9372 15.1675C13.9372 15.5143 12.9389 15.7954 11.7066 15.7954C10.4744 15.7954 9.47607 15.5143 9.47607 15.1675C9.47607 14.8207 10.4744 14.5386 11.7066 14.5386C12.9389 14.5386 13.9372 14.8197 13.9372 15.1675Z" fill="#5585FF"/>
</g>
<g id="Group_3">
<path id="Vector_6" opacity="0.2" d="M14.1951 5.49121H13.3661C12.7453 5.49121 12.2416 5.99191 12.2375 6.61162H11.3797C11.3756 5.99191 10.8718 5.49121 10.2511 5.49121H9.42208C8.79826 5.49121 8.29346 5.99601 8.29346 6.61983V6.75732C8.29346 7.38113 8.79928 7.88593 9.42208 7.88593H10.2511C10.8205 7.88593 11.2905 7.46322 11.3674 6.9143V6.94918H12.2539C12.3452 7.48066 12.8069 7.88593 13.3651 7.88593H14.1941C14.8179 7.88593 15.3227 7.38011 15.3227 6.75732V6.61983C15.3227 5.99601 14.8169 5.49121 14.1941 5.49121H14.1951ZM11.0996 6.74398C11.0996 7.25391 10.6861 7.66739 10.1762 7.66739H9.498C8.98807 7.66739 8.57459 7.25391 8.57459 6.74398V6.63214C8.57459 6.12221 8.98807 5.70873 9.498 5.70873H10.1762C10.6861 5.70873 11.0996 6.12221 11.0996 6.63214V6.74398ZM15.0436 6.74398C15.0436 7.25391 14.6301 7.66739 14.1202 7.66739H13.442C12.9321 7.66739 12.5186 7.25391 12.5186 6.74398V6.63214C12.5186 6.12221 12.9321 5.70873 13.442 5.70873H14.1202C14.6301 5.70873 15.0436 6.12221 15.0436 6.63214V6.74398Z" fill="#5585FF"/>
<path id="Vector_7" d="M14.0925 5.38574H13.2635C12.6428 5.38574 12.139 5.88644 12.1349 6.50615H11.2782C11.274 5.88644 10.7703 5.38574 10.1495 5.38574H9.32051C8.69669 5.38574 8.19189 5.89157 8.19189 6.51436V6.65082C8.19189 7.27464 8.69669 7.77944 9.32051 7.77944H10.1495C10.719 7.77944 11.1889 7.35672 11.2658 6.80883V6.84371H12.1523C12.2436 7.37519 12.7064 7.77944 13.2635 7.77944H14.0925C14.7163 7.77944 15.2211 7.27464 15.2211 6.65082V6.51436C15.2211 5.89054 14.7153 5.38574 14.0925 5.38574ZM10.997 6.63953C10.997 7.14946 10.5835 7.56295 10.0736 7.56295H9.39541C8.88548 7.56295 8.472 7.14946 8.472 6.63953V6.5277C8.472 6.01777 8.88548 5.60428 9.39541 5.60428H10.0736C10.5835 5.60428 10.997 6.01777 10.997 6.5277V6.63953ZM14.941 6.63953C14.941 7.14946 14.5275 7.56295 14.0176 7.56295H13.3394C12.8295 7.56295 12.416 7.14946 12.416 6.63953V6.5277C12.416 6.01777 12.8295 5.60428 13.3394 5.60428H14.0176C14.5275 5.60428 14.941 6.01777 14.941 6.5277V6.63953Z" fill="#5585FF"/>
<path id="Vector_8" d="M8.40613 6.50319L7.32471 5.89476V5.51514L8.40408 6.2354L8.40613 6.50319Z" fill="#5585FF"/>
<path id="Vector_9" d="M14.9839 6.50319L16.0643 5.89476V5.51514L15.0136 6.21693L14.9839 6.50319Z" fill="#5585FF"/>
<g id="Group_4">
<path id="Vector_10" opacity="0.3" d="M10.6446 5.80371C10.0905 6.35776 9.53647 6.91181 8.98242 7.46586C9.10657 7.52845 9.24611 7.56333 9.39488 7.56333H9.9674C10.3101 7.22064 10.6538 6.87795 10.9965 6.53423V6.52808C10.9965 6.23361 10.859 5.973 10.6446 5.80371Z" fill="#5585FF"/>
<path id="Vector_11" opacity="0.3" d="M8.57422 6.1062L8.97437 5.70605C8.80302 5.79429 8.66246 5.93383 8.57422 6.1062Z" fill="#5585FF"/>
<path id="Vector_12" opacity="0.3" d="M10.0732 5.60449H9.55505C9.19492 5.96462 8.83376 6.32476 8.47363 6.68591C8.48492 6.90651 8.57213 7.10555 8.71064 7.25946C9.25033 6.71977 9.78899 6.18111 10.3287 5.64143C10.2476 5.61783 10.1614 5.60552 10.0732 5.60552V5.60449Z" fill="#5585FF"/>
<path id="Vector_13" opacity="0.3" d="M14.444 5.70903C13.8889 6.26411 13.3349 6.81918 12.7798 7.37323C12.9347 7.49225 13.1286 7.56305 13.339 7.56305H13.618C14.0469 7.13417 14.4758 6.70427 14.9057 6.27539C14.8359 6.02915 14.6666 5.82497 14.444 5.70801V5.70903Z" fill="#5585FF"/>
<path id="Vector_14" opacity="0.3" d="M14.1016 7.55881C14.5438 7.5188 14.8967 7.16687 14.9367 6.72363C14.6587 7.00168 14.3796 7.28076 14.1016 7.55881Z" fill="#5585FF"/>
<path id="Vector_15" opacity="0.3" d="M14.0171 5.60449H13.3389C12.829 5.60449 12.4155 6.01798 12.4155 6.52791V6.63974C12.4155 6.81724 12.4658 6.98141 12.553 7.12197C13.0578 6.61717 13.5636 6.11134 14.0684 5.60654C14.052 5.60654 14.0346 5.60449 14.0182 5.60449H14.0171Z" fill="#5585FF"/>
</g>
</g>
</g>
<g id="Group_5">
<g id="Group_6">
<path id="Vector_16" d="M9.78701 12.2402L9.4751 15.1675H13.9372L13.691 12.2402H9.78701Z" fill="#5585FF"/>
<path id="Vector_17" opacity="0.1" d="M13.7627 13.4879L13.6581 12.2402H9.75407L9.64941 13.2211C10.2691 13.8408 11.0109 14.2246 11.8523 14.2246C12.5643 14.2246 13.2066 13.9496 13.7617 13.4889L13.7627 13.4879Z" fill="#5585FF"/>
<path id="Vector_18" d="M11.0508 3.34787C9.64311 3.56948 9.24501 3.89371 9.22142 3.90704C7.58492 4.81815 7.4659 7.38319 7.4659 7.38319C7.4659 7.38319 6.69536 2.06432 8.76689 1.73189C8.95465 0.272893 12.4175 -0.430955 13.938 0.281101C16.2599 1.36868 16.3902 3.20422 15.9511 6.96047C15.6453 4.36157 15.2749 4.11943 13.938 3.59719C13.1788 3.29964 11.8419 3.22269 11.0518 3.34787H11.0508Z" fill="#5585FF"/>
<path id="Vector_19" d="M11.7056 15.9801C13.0323 15.9801 14.1075 15.6159 14.1075 15.1665H9.30371C9.30371 15.6159 10.379 15.9801 11.7056 15.9801Z" fill="#5585FF"/>
<path id="Vector_20" d="M13.9372 15.1675C13.9372 15.5143 12.9389 15.7954 11.7066 15.7954C10.4744 15.7954 9.47607 15.5143 9.47607 15.1675C9.47607 14.8207 10.4744 14.5386 11.7066 14.5386C12.9389 14.5386 13.9372 14.8197 13.9372 15.1675Z" fill="#5585FF"/>
</g>
<g id="Group_7">
<path id="Vector_21" d="M14.1951 5.49121H13.3661C12.7453 5.49121 12.2416 5.99191 12.2375 6.61162H11.3797C11.3756 5.99191 10.8718 5.49121 10.2511 5.49121H9.42208C8.79826 5.49121 8.29346 5.99601 8.29346 6.61983V6.75732C8.29346 7.38113 8.79928 7.88593 9.42208 7.88593H10.2511C10.8205 7.88593 11.2905 7.46322 11.3674 6.9143V6.94918H12.2539C12.3452 7.48066 12.8069 7.88593 13.3651 7.88593H14.1941C14.8179 7.88593 15.3227 7.38011 15.3227 6.75732V6.61983C15.3227 5.99601 14.8169 5.49121 14.1941 5.49121H14.1951ZM11.0996 6.74398C11.0996 7.25391 10.6861 7.66739 10.1762 7.66739H9.498C8.98807 7.66739 8.57459 7.25391 8.57459 6.74398V6.63214C8.57459 6.12221 8.98807 5.70873 9.498 5.70873H10.1762C10.6861 5.70873 11.0996 6.12221 11.0996 6.63214V6.74398ZM15.0436 6.74398C15.0436 7.25391 14.6301 7.66739 14.1202 7.66739H13.442C12.9321 7.66739 12.5186 7.25391 12.5186 6.74398V6.63214C12.5186 6.12221 12.9321 5.70873 13.442 5.70873H14.1202C14.6301 5.70873 15.0436 6.12221 15.0436 6.63214V6.74398Z" fill="#5585FF"/>
<path id="Vector_22" d="M14.0925 5.38574H13.2635C12.6428 5.38574 12.139 5.88644 12.1349 6.50615H11.2782C11.274 5.88644 10.7703 5.38574 10.1495 5.38574H9.32051C8.69669 5.38574 8.19189 5.89157 8.19189 6.51436V6.65082C8.19189 7.27464 8.69669 7.77944 9.32051 7.77944H10.1495C10.719 7.77944 11.1889 7.35672 11.2658 6.80883V6.84371H12.1523C12.2436 7.37519 12.7064 7.77944 13.2635 7.77944H14.0925C14.7163 7.77944 15.2211 7.27464 15.2211 6.65082V6.51436C15.2211 5.89054 14.7153 5.38574 14.0925 5.38574ZM10.997 6.63953C10.997 7.14946 10.5835 7.56295 10.0736 7.56295H9.39541C8.88548 7.56295 8.472 7.14946 8.472 6.63953V6.5277C8.472 6.01777 8.88548 5.60428 9.39541 5.60428H10.0736C10.5835 5.60428 10.997 6.01777 10.997 6.5277V6.63953ZM14.941 6.63953C14.941 7.14946 14.5275 7.56295 14.0176 7.56295H13.3394C12.8295 7.56295 12.416 7.14946 12.416 6.63953V6.5277C12.416 6.01777 12.8295 5.60428 13.3394 5.60428H14.0176C14.5275 5.60428 14.941 6.01777 14.941 6.5277V6.63953Z" fill="#5585FF"/>
<path id="Vector_23" d="M8.40613 6.50319L7.32471 5.89476V5.51514L8.40408 6.2354L8.40613 6.50319Z" fill="#5585FF"/>
<path id="Vector_24" d="M14.9839 6.50319L16.0643 5.89476V5.51514L15.0136 6.21693L14.9839 6.50319Z" fill="#5585FF"/>
<g id="Group_8">
<path id="Vector_25" d="M10.6446 5.80371C10.0905 6.35776 9.53647 6.91181 8.98242 7.46586C9.10657 7.52845 9.24611 7.56333 9.39488 7.56333H9.9674C10.3101 7.22064 10.6538 6.87795 10.9965 6.53423V6.52808C10.9965 6.23361 10.859 5.973 10.6446 5.80371Z" fill="#5585FF"/>
<path id="Vector_26" d="M8.57422 6.1062L8.97437 5.70605C8.80302 5.79429 8.66246 5.93383 8.57422 6.1062Z" fill="#5585FF"/>
<path id="Vector_27" d="M10.0732 5.60449H9.55505C9.19492 5.96462 8.83376 6.32476 8.47363 6.68591C8.48492 6.90651 8.57213 7.10555 8.71064 7.25946C9.25033 6.71977 9.78899 6.18111 10.3287 5.64143C10.2476 5.61783 10.1614 5.60552 10.0732 5.60552V5.60449Z" fill="#5585FF"/>
<path id="Vector_28" d="M14.444 5.70903C13.8889 6.26411 13.3349 6.81918 12.7798 7.37323C12.9347 7.49225 13.1286 7.56305 13.339 7.56305H13.618C14.0469 7.13417 14.4758 6.70427 14.9057 6.27539C14.8359 6.02915 14.6666 5.82497 14.444 5.70801V5.70903Z" fill="#5585FF"/>
<path id="Vector_29" d="M14.1016 7.55881C14.5438 7.5188 14.8967 7.16687 14.9367 6.72363C14.6587 7.00168 14.3796 7.28076 14.1016 7.55881Z" fill="#5585FF"/>
<path id="Vector_30" d="M14.0171 5.60449H13.3389C12.829 5.60449 12.4155 6.01798 12.4155 6.52791V6.63974C12.4155 6.81724 12.4658 6.98141 12.553 7.12197C13.0578 6.61717 13.5636 6.11134 14.0684 5.60654C14.052 5.60654 14.0346 5.60449 14.0182 5.60449H14.0171Z" fill="#5585FF"/>
</g>
</g>
</g>
<g id="Group_9">
<g id="Group_10">
<path id="Vector_31" d="M5.98177 24.9507H17.4311C17.899 24.9507 18.2786 25.3304 18.2786 25.7982V27.1536C18.2786 27.6215 17.899 28.0001 17.4321 28.0001H5.98177C5.5139 28.0001 5.13428 27.6204 5.13428 27.1526V25.7972C5.13428 25.3293 5.5139 24.9497 5.98177 24.9497V24.9507Z" fill="#5585FF"/>
<path id="Vector_32" d="M17.4321 27.491H5.98177C5.5139 27.491 5.13428 27.1114 5.13428 26.6436V27.1514C5.13428 27.6193 5.5139 27.9989 5.98177 27.9989H17.4311C17.899 27.9989 18.2786 27.6193 18.2786 27.1514V26.6436C18.2786 27.1114 17.899 27.491 17.4311 27.491H17.4321Z" fill="#5585FF"/>
</g>
<path id="Vector_33" d="M0.84749 8.39062H22.5672C23.0351 8.39062 23.4147 8.77025 23.4147 9.23812V21.3933C23.4147 21.8612 23.0351 22.2408 22.5672 22.2408H0.84749C0.379626 22.2408 0 21.8612 0 21.3933V9.23812C0 8.77025 0.379626 8.39062 0.84749 8.39062Z" fill="#5585FF"/>
<path id="Vector_34" d="M0.847656 8.39062H22.5674C23.0353 8.39062 23.4149 8.77025 23.4149 9.23812V21.3933L0.847656 8.39062Z" fill="#5585FF"/>
<path id="Vector_35" d="M22.762 20.9225C22.762 21.3637 22.404 21.8162 21.9617 21.8162H1.45166C1.00945 21.8162 0.651367 21.3637 0.651367 20.9225V9.61377C0.651367 9.17156 1.00945 8.81348 1.45166 8.81348H21.9617C22.404 8.81348 22.762 9.17156 22.762 9.61377V20.9225Z" fill="#5585FF"/>
<path id="Vector_36" d="M15.9803 16.6488C15.9803 19.0087 14.0668 20.9222 11.707 20.9222C9.34712 20.9222 7.43359 19.0097 7.43359 16.6488C7.43359 14.288 9.34712 12.3755 11.707 12.3755C14.0668 12.3755 15.9803 14.289 15.9803 16.6488Z" fill="#5585FF"/>
<path id="Vector_37" d="M13.2561 16.6489H10.1575C9.68969 16.6489 9.31006 17.0286 9.31006 17.4964V25.9672C9.31006 26.4351 9.68969 26.8147 10.1575 26.8147H13.2561C13.724 26.8147 14.1036 26.4351 14.1036 25.9672V17.4964C14.1036 17.0286 13.724 16.6489 13.2561 16.6489ZM12.2681 23.1149C12.2681 23.4247 12.0167 23.6761 11.7068 23.6761C11.397 23.6761 11.1456 23.4247 11.1456 23.1149V22.0355C11.1456 21.7257 11.397 21.4743 11.7068 21.4743C12.0167 21.4743 12.2681 21.7257 12.2681 22.0355V23.1149Z" fill="#5585FF"/>
<g id="Group_11">
<path id="Vector_38" d="M13.8779 20.1035V25.5055C13.8779 25.9292 13.5342 26.273 13.1104 26.273H10.3032C9.8795 26.273 9.53578 25.9292 9.53578 25.5055V20.1035L9.31006 21.031V25.9672C9.31006 26.4351 9.68969 26.8147 10.1575 26.8147H13.2561C13.724 26.8147 14.1036 26.4351 14.1036 25.9672V21.031L13.8779 20.1035Z" fill="#5585FF"/>
<path id="Vector_39" d="M9.53578 20.1394V17.9581C9.53578 17.5344 9.8795 17.1907 10.3032 17.1907H13.1104C13.5342 17.1907 13.8779 17.5344 13.8779 17.9581V20.1035L14.1036 21.031V17.4964C14.1036 17.0286 13.724 16.6489 13.2561 16.6489H10.1575C9.68969 16.6489 9.31006 17.0286 9.31006 17.4964V21.031L9.53578 20.1394Z" fill="#5585FF"/>
<path id="Vector_40" d="M11.707 21.474C11.8825 21.474 12.0394 21.5551 12.142 21.6813C12.0528 21.5336 11.8917 21.4351 11.707 21.4351C11.5223 21.4351 11.3602 21.5346 11.272 21.6813C11.3746 21.5551 11.5316 21.474 11.707 21.474Z" fill="#5585FF"/>
</g>
</g>
</g>
<defs>
<clipPath id="clip0_113_1940">
<rect width="23.4137" height="28" fill="white"/>
</clipPath>
</defs>
</svg>
