<svg width="28" height="28" viewBox="0 0 28 28" fill="none" xmlns="http://www.w3.org/2000/svg">
<g id="Transcript Viewer 3" clip-path="url(#clip0_113_1905)">
<path id="Vector" d="M7.34033 13.4899H18.7235L20.1162 12.0972H7.34033V13.4899Z" fill="#2A85C8"/>
<path id="Vector_2" d="M7.38477 17.0044H15.2102L16.6502 15.5645H7.38477V17.0044Z" fill="#2A85C8"/>
<path id="Vector_3" d="M20.7921 17.0044V15.5645H20.5728L19.1318 17.0044H20.7921Z" fill="#2A85C8"/>
<path id="Vector_4" d="M20.792 20.2632V18.8232H17.313L15.873 20.2632H20.792Z" fill="black"/>
<path id="Vector_5" d="M7.38477 20.2632H11.9506L13.3906 18.8232H7.38477V20.2632Z" fill="#2A85C8"/>
<path id="Vector_6" d="M10.0739 23.5225L10.1211 23.4271L10.7821 22.0825H7.38477V23.5225H10.0739Z" fill="#2A85C8"/>
<path id="Vector_7" d="M13.2066 22.8458L11.8296 23.5225H17.4607V22.0825H14.0545L13.601 22.5369L13.2715 22.2074L13.1466 22.0835H12.7817L13.2558 22.5576C13.2971 22.5989 13.3158 22.6569 13.306 22.714C13.2961 22.772 13.2597 22.8202 13.2076 22.8458H13.2066Z" fill="#2A85C8"/>
<path id="Vector_8" d="M21.6491 24.5869H19.0918V27.0567L21.6491 24.5869Z" fill="#2A85C8"/>
<path id="Vector_9" d="M15.873 20.2632L17.313 18.8232H20.792V20.2632H15.873Z" fill="#2A85C8"/>
<path id="Vector_10" d="M24.44 8.8599L12.1519 21.1523L13.0235 22.0237L25.3116 9.73122L24.44 8.8599Z" fill="black"/>
<path id="Vector_11" d="M19.1318 17.0043L19.8666 16.2695L19.1318 17.0043Z" fill="black"/>
<path id="Vector_12" d="M24.4412 8.86205L12.1509 21.1523L13.0223 22.0238L25.3126 9.73351L24.4412 8.86205Z" fill="#2A85C8"/>
<path id="Vector_13" d="M13.599 22.537L25.89 10.247L25.5595 9.91748L13.2695 22.2065L13.599 22.537Z" fill="#2A85C8"/>
<path id="Vector_14" d="M11.6181 20.9199C11.5768 20.8786 11.5188 20.8599 11.4607 20.8698C11.4027 20.8796 11.3545 20.916 11.3289 20.9681L10.7821 22.0825L10.1211 23.4271L10.7476 24.0537L11.8296 23.5225L13.2066 22.8458C13.2588 22.8202 13.2952 22.7711 13.305 22.714C13.3138 22.656 13.2961 22.5989 13.2548 22.5576L12.7807 22.0835L11.6181 20.9209V20.9199Z" fill="#2A85C8"/>
<path id="Vector_15" d="M9.74953 24.1846C9.71609 24.2535 9.72986 24.3371 9.78396 24.3912C9.83805 24.4453 9.92166 24.459 9.99051 24.4256L10.7479 24.0538L10.1213 23.4272L10.0741 23.5217L9.74855 24.1836L9.74953 24.1846Z" fill="#2A85C8"/>
<path id="Vector_16" d="M25.124 7.08957L24.8978 7.3158L24.5151 7.69841L24.105 8.10857L26.0663 10.0699L26.4764 9.6597L26.8581 9.27807L27.0853 9.05184C27.6272 8.50988 27.6262 7.63251 27.0853 7.09055C26.5433 6.54859 25.665 6.54859 25.124 7.09055V7.08957Z" fill="#2A85C8"/>
<path id="Vector_17" d="M5.55136 4.67011C6.84098 4.67011 7.88642 3.62467 7.88642 2.33505C7.88642 1.04544 6.84098 0 5.55136 0C4.26175 0 3.21631 1.04544 3.21631 2.33505C3.21631 3.62467 4.26175 4.67011 5.55136 4.67011Z" fill="#2A85C8"/>
<g id="Group">
<path id="Vector_18" d="M21.6655 23.6269H18.6105C18.4846 23.6269 18.3606 23.6781 18.2711 23.7676C18.1816 23.8571 18.1305 23.9801 18.1305 24.1069V27.039H6.51126V11.4717C6.19257 11.4933 5.87192 11.5051 5.55127 11.5051V27.519C5.55127 27.6459 5.60242 27.7689 5.69192 27.8584C5.78143 27.9479 5.90536 27.999 6.03126 27.999H19.2114C19.3373 27.999 19.4603 27.9489 19.5498 27.8594L21.0301 26.3879L21.0321 26.3859L22.4868 24.9253C22.5753 24.8358 22.6265 24.7128 22.6265 24.586V13.5087L21.6655 14.4697V23.626V23.6269ZM19.0905 27.0567V24.5879H21.6478L19.0905 27.0567Z" fill="#2A85C8"/>
<path id="Vector_19" d="M23.9277 8.28597L22.6264 9.58726V5.98927C22.6264 5.86239 22.5753 5.73944 22.4858 5.64993C22.3963 5.56042 22.2724 5.50928 22.1465 5.50928H10.4043C10.9207 5.77682 11.3554 6.09747 11.6741 6.46927H21.6655V10.5473L20.1163 12.0974L18.7235 13.4902L16.6501 15.5646L15.2101 17.0046L13.3915 18.8232L11.9505 20.2632L11.6377 20.575L11.9682 20.9045L24.2582 8.61449L23.9277 8.28498V8.28597Z" fill="#2A85C8"/>
</g>
<path id="Vector_20" d="M5.55141 10.3386C8.61737 10.3386 11.1028 9.29313 11.1028 8.00351C11.1028 6.7139 8.61737 5.66846 5.55141 5.66846C2.48545 5.66846 0 6.7139 0 8.00351C0 9.29313 2.48545 10.3386 5.55141 10.3386Z" fill="#2A85C8"/>
<path id="Vector_21" d="M12.0601 8.94482C11.8034 9.49662 11.3214 9.96186 10.689 10.3376H20.3075V8.94482H12.0601Z" fill="#2A85C8"/>
</g>
<defs>
<clipPath id="clip0_113_1905">
<rect width="27.4915" height="28" fill="white"/>
</clipPath>
</defs>
</svg>
