<svg width="28" height="24" viewBox="0 0 28 24" fill="none" xmlns="http://www.w3.org/2000/svg">
<g id="Chatbot Assistant 5" clip-path="url(#clip0_113_1852)">
<g id="CUSTOM-Group">
<g id="Group">
<path id="Vector" d="M24.2231 11.6732H23.173C22.3385 10.3279 21.1127 9.22461 19.6107 8.54576C19.3449 8.42613 19.0325 8.54386 18.9129 8.80971C18.7933 9.07555 18.911 9.38792 19.1768 9.50755C21.7014 10.6478 23.3325 13.1638 23.3325 15.9172C23.3325 19.7919 20.1794 22.9441 16.3038 22.9441H10.7145C6.83883 22.9441 3.68573 19.7919 3.68573 15.9172C3.68573 12.0426 6.83883 8.88851 10.7145 8.88851H11.7873C12.0788 8.88851 12.3152 8.6521 12.3152 8.36062C12.3152 8.06914 12.0788 7.83273 11.7873 7.83273H10.7145C7.81296 7.83273 5.26371 9.36988 3.83765 11.6723H3.32115V5.06701C4.28578 4.82964 5.00356 3.95806 5.00356 2.92032C5.00356 1.70218 4.01234 0.711914 2.79326 0.711914C1.57418 0.711914 0.582957 1.70313 0.582957 2.92127C0.582957 3.95806 1.29979 4.82964 2.26442 5.06701V11.7235C0.976027 11.9713 0 13.1059 0 14.4655V17.3689C0 18.9089 1.25231 20.1622 2.79231 20.1622H3.8367C5.26276 22.4636 7.81201 23.9998 10.7135 23.9998H16.3029C18.4534 23.9998 20.4814 23.1567 22.0119 21.6262C22.461 21.1781 22.8493 20.6863 23.1759 20.1622H24.2222C25.7622 20.1622 27.0154 18.9089 27.0154 17.3689V14.4655C27.0154 12.9255 25.7622 11.6732 24.2222 11.6732H24.2231ZM1.63874 2.92127C1.63874 2.28514 2.15618 1.76769 2.79231 1.76769C3.42844 1.76769 3.94778 2.28514 3.94778 2.92127C3.94778 3.55739 3.42939 4.07674 2.79231 4.07674C2.15523 4.07674 1.63874 3.55834 1.63874 2.92127ZM2.79231 19.1064C1.83432 19.1064 1.05578 18.3269 1.05578 17.368V14.4646C1.05578 13.5066 1.83527 12.7281 2.79231 12.7281H3.28602C2.86447 13.7069 2.62995 14.7855 2.62995 15.9172C2.62995 17.049 2.86447 18.1275 3.28602 19.1064H2.79231ZM25.9615 17.368C25.9615 18.3269 25.1821 19.1064 24.2231 19.1064H23.7304C24.1614 18.1104 24.3874 17.0309 24.3874 15.9172C24.3874 14.8035 24.1538 13.7193 23.7247 12.7281H24.2231C25.1821 12.7281 25.9615 13.5075 25.9615 14.4646V17.368Z" fill="#E331D2"/>
<path id="Vector_2" d="M9.0531 12.5601C7.95744 12.5601 7.06592 13.6348 7.06592 14.9555C7.06592 16.2762 7.95744 17.3509 9.0531 17.3509C10.1488 17.3509 11.0393 16.2762 11.0393 14.9555C11.0393 13.6348 10.1488 12.5601 9.0531 12.5601ZM9.0531 16.2961C8.548 16.2961 8.12075 15.6818 8.12075 14.9555C8.12075 14.2292 8.548 13.6149 9.0531 13.6149C9.5582 13.6149 9.98355 14.2292 9.98355 14.9555C9.98355 15.6818 9.55725 16.2961 9.0531 16.2961Z" fill="#E331D2"/>
<path id="Vector_3" d="M11.5871 19.2595C11.3811 19.4655 11.3811 19.7997 11.5871 20.0058C12.1008 20.5204 12.7834 20.8033 13.5098 20.8033C14.2361 20.8033 14.9187 20.5204 15.4324 20.0058C15.6384 19.7997 15.6375 19.4655 15.4324 19.2595C15.2264 19.0535 14.8921 19.0535 14.6861 19.2595C14.3719 19.5738 13.955 19.7475 13.5107 19.7475C13.0664 19.7475 12.6496 19.5738 12.3353 19.2595C12.1293 19.0535 11.7951 19.0535 11.589 19.2595H11.5871Z" fill="#E331D2"/>
<path id="Vector_4" d="M17.9633 17.3519C19.058 17.3519 19.9495 16.2772 19.9495 14.9565C19.9495 13.6358 19.0589 12.561 17.9633 12.561C16.8676 12.561 15.9761 13.6358 15.9761 14.9565C15.9761 16.2772 16.8676 17.3519 17.9633 17.3519ZM17.9633 13.6159C18.4674 13.6159 18.8937 14.2302 18.8937 14.9565C18.8937 15.6828 18.4674 16.2971 17.9633 16.2971C17.4591 16.2971 17.0309 15.6828 17.0309 14.9565C17.0309 14.2302 17.4582 13.6159 17.9633 13.6159Z" fill="#E331D2"/>
</g>
<path id="Vector_5" fill-rule="evenodd" clip-rule="evenodd" d="M23.287 0H12.3608C11.6744 0 11.1133 0.56207 11.1133 1.24757V8.36079C11.1427 9.0216 11.6924 9.55424 12.3608 9.55424H13.7157C13.7385 10.8797 13.466 11.4398 12.9599 12.4814C15.005 11.8918 16.2583 11.8652 17.6682 9.55424H23.2861C23.9725 9.55424 24.5336 8.99217 24.5336 8.30572V1.24757C24.5336 0.563019 23.9725 0 23.2861 0H23.287ZM13.785 1.86091H14.9984C15.2899 1.86091 15.5263 2.09732 15.5263 2.3888C15.5263 2.68028 15.2899 2.91669 14.9984 2.91669H13.785C13.4935 2.91669 13.2571 2.68028 13.2571 2.3888C13.2571 2.09732 13.4935 1.86091 13.785 1.86091ZM18.0119 7.69333H13.785C13.4935 7.69333 13.2571 7.45692 13.2571 7.16544C13.2571 6.87396 13.4935 6.63755 13.785 6.63755H18.0119C18.3034 6.63755 18.5398 6.87396 18.5398 7.16544C18.5398 7.45692 18.3034 7.69333 18.0119 7.69333ZM21.8638 7.69333H20.6504C20.3589 7.69333 20.1225 7.45692 20.1225 7.16544C20.1225 6.87396 20.3589 6.63755 20.6504 6.63755H21.8638C22.1553 6.63755 22.3917 6.87396 22.3917 7.16544C22.3917 7.45692 22.1553 7.69333 21.8638 7.69333ZM21.8638 5.30453H13.785C13.4935 5.30453 13.2571 5.06812 13.2571 4.77664C13.2571 4.48517 13.4935 4.24875 13.785 4.24875H21.8638C22.1553 4.24875 22.3917 4.48517 22.3917 4.77664C22.3917 5.06812 22.1553 5.30453 21.8638 5.30453ZM21.8638 2.91574H17.6369C17.3454 2.91574 17.109 2.67933 17.109 2.38785C17.109 2.09637 17.3454 1.85996 17.6369 1.85996H21.8638C22.1553 1.85996 22.3917 2.09637 22.3917 2.38785C22.3917 2.67933 22.1553 2.91574 21.8638 2.91574Z" fill="#E331D2"/>
</g>
</g>
<defs>
<clipPath id="clip0_113_1852">
<rect width="27.0164" height="24" fill="white"/>
</clipPath>
</defs>
</svg>
