<svg width="17" height="17" viewBox="0 0 17 17" fill="none" xmlns="http://www.w3.org/2000/svg">
<g id="fa:magic" clip-path="url(#clip0_179_64)">
<path id="Vector" d="M11.2188 6.08654L14.0361 3.26923L13.0073 2.24038L10.19 5.05769L11.2188 6.08654ZM15.5169 3.26923C15.5169 3.44231 15.4592 3.58654 15.3438 3.70192L2.97844 16.0673C2.86306 16.1827 2.71883 16.2404 2.54575 16.2404C2.37267 16.2404 2.22844 16.1827 2.11306 16.0673L0.20921 14.1635C0.0938251 14.0481 0.0361328 13.9038 0.0361328 13.7308C0.0361328 13.5577 0.0938251 13.4135 0.20921 13.2981L12.5746 0.932692C12.69 0.817308 12.8342 0.759615 13.0073 0.759615C13.1804 0.759615 13.3246 0.817308 13.44 0.932692L15.3438 2.83654C15.4592 2.95192 15.5169 3.09615 15.5169 3.26923ZM2.52652 1.44231L3.46883 1.73077L2.52652 2.01923L2.23806 2.96154L1.94959 2.01923L1.00729 1.73077L1.94959 1.44231L2.23806 0.5L2.52652 1.44231ZM5.8919 3L7.77652 3.57692L5.8919 4.15385L5.31498 6.03846L4.73806 4.15385L2.85344 3.57692L4.73806 3L5.31498 1.11538L5.8919 3ZM14.8342 7.59615L15.7765 7.88462L14.8342 8.17308L14.5457 9.11539L14.2573 8.17308L13.315 7.88462L14.2573 7.59615L14.5457 6.65385L14.8342 7.59615ZM8.68036 1.44231L9.62267 1.73077L8.68036 2.01923L8.3919 2.96154L8.10344 2.01923L7.16113 1.73077L8.10344 1.44231L8.3919 0.5L8.68036 1.44231Z" fill="white"/>
</g>
<defs>
<clipPath id="clip0_179_64">
<rect width="16" height="16" fill="white" transform="translate(0.0361328 0.5)"/>
</clipPath>
</defs>
</svg>
