<svg width="15" height="15" viewBox="0 0 15 15" fill="none" xmlns="http://www.w3.org/2000/svg">
<g id="catppuccin:url">
<path id="Vector" d="M5.00027 10.1402L10.0003 5.14016M3.23027 6.25016L2.17027 7.31016C1.41971 8.06073 0.998047 9.07871 0.998047 10.1402C0.998047 11.2016 1.41971 12.2196 2.17027 12.9702C2.92083 13.7207 3.93882 14.1424 5.00027 14.1424C6.06173 14.1424 7.07971 13.7207 7.83027 12.9702L8.89027 11.9102M11.7703 9.03016L12.8303 7.97016C13.5808 7.2196 14.0025 6.20162 14.0025 5.14016C14.0025 4.07871 13.5808 3.06073 12.8303 2.31016C12.0797 1.5596 11.0617 1.13794 10.0003 1.13794C8.93881 1.13794 7.92083 1.5596 7.17027 2.31016L6.11027 3.37016" stroke="white" stroke-linecap="round" stroke-linejoin="round"/>
</g>
</svg>
